<?xml version="1.0" standalone="no"?>
<!DOCTYPE svg PUBLIC "-//W3C//DTD SVG 20010904//EN"
 "http://www.w3.org/TR/2001/REC-SVG-20010904/DTD/svg10.dtd">
<svg version="1.0" xmlns="http://www.w3.org/2000/svg"
 width="247.000000pt" height="247.000000pt" viewBox="0 0 247.000000 247.000000"
 preserveAspectRatio="xMidYMid meet">

<g transform="translate(0.000000,247.000000) scale(0.100000,-0.100000)"
fill="#000000" stroke="none">
<path d="M1007 2444 c-288 -52 -562 -223 -745 -464 -80 -107 -174 -296 -207
-420 -155 -580 120 -1166 666 -1424 183 -86 362 -122 567 -113 246 11 451 80
644 217 246 175 414 419 488 710 42 164 42 426 0 590 -115 456 -484 805 -949
900 -119 24 -343 26 -464 4z m504 -107 c206 -54 372 -149 519 -296 142 -142
241 -314 297 -516 30 -110 42 -336 24 -455 -114 -742 -918 -1169 -1598 -850
-328 154 -572 477 -633 840 -18 103 -16 287 4 391 86 458 448 816 912 904 124
23 353 14 475 -18z"/>
<path d="M1180 2303 c-267 -18 -507 -123 -689 -303 -430 -426 -423 -1119 15
-1530 124 -116 245 -187 409 -240 208 -66 438 -65 650 5 668 218 941 1012 550
1600 -71 108 -226 254 -336 320 -167 99 -413 160 -599 148z m-40 -219 c61 -33
90 -73 90 -125 0 -42 -19 -62 -52 -57 -17 2 -31 19 -53 63 -36 73 -77 98 -144
92 -80 -9 -121 -64 -101 -137 7 -26 44 -68 141 -162 l132 -127 136 -3 c118 -3
142 -6 183 -26 52 -26 111 -81 135 -127 26 -48 29 -169 6 -237 l-20 -58 108 0
c59 0 110 -4 113 -9 10 -16 -5 -41 -25 -41 -31 0 -66 -21 -78 -46 -6 -13 -31
-131 -56 -263 -51 -269 -67 -328 -101 -387 -30 -52 -60 -79 -106 -99 -109 -45
-286 22 -240 91 18 28 49 24 102 -12 62 -42 91 -46 125 -14 36 34 49 77 116
399 l62 295 -23 18 c-22 18 -23 18 -56 -27 -19 -24 -54 -58 -79 -75 -80 -55
-107 -60 -341 -60 -199 0 -214 1 -214 18 0 13 13 21 44 30 39 10 46 16 60 54
13 34 48 174 80 318 3 14 -4 13 -53 -3 -171 -58 -381 50 -381 196 0 39 15 57
47 57 26 0 45 -26 68 -90 9 -25 27 -57 42 -72 54 -56 183 -58 231 -3 30 35 32
119 2 135 -10 6 -17 16 -14 24 3 7 -40 54 -105 115 -148 137 -178 205 -132
291 37 70 110 102 221 97 61 -3 86 -9 130 -33z"/>
<path d="M1243 1580 c-12 -5 -24 -17 -27 -27 -8 -26 -116 -531 -116 -543 0 -6
38 -10 98 -10 74 0 107 5 139 19 93 43 182 227 183 379 0 124 -77 192 -215
191 -22 0 -50 -4 -62 -9z"/>
</g>
</svg>
